# xmcd
#
# Track frame offsets: 
#        150
#        15812
#        33012
#        47525
#        60555
#        72490
#        90152
#        105387
#        117730
#        129767
#        148507
#        160447
#        177925
#        193990
#        203367
#
# Disc length: 2841 seconds
#
# Revision: 1
# Processed by: cddbd v1.5.1PL2 Copyright (c) Steve Scherf et al.
# Submitted via: ExactAudioCopy v0.95b4
#
DISCID=bb0b170f
DTITLE=Fausto Papetti - Actos De Amor
DYEAR=1992
DGENRE=Latin
TTITLE0=Blue Eyes
TTITLE1=Chiaro Di Luna
TTITLE2=E Se Domani
TTITLE3=Forever And Ever
TTITLE4=Giochi Proibiti
TTITLE5=Pensiero Stupendo
TTITLE6=Non Credere
TTITLE7=Scandalo Al Sole
TTITLE8=Anema E Core
TTITLE9=My Way
TTITLE10=Nessuno Al Mondo
TTITLE11=Je T'aime Moi Non Plus
TTITLE12=Sorry Seems To Be The Hardest Word
TTITLE13=You Don't Have To Say You Love Me
TTITLE14=Words
EXTD=
EXTT0=
EXTT1=
EXTT2=
EXTT3=
EXTT4=
EXTT5=
EXTT6=
EXTT7=
EXTT8=
EXTT9=
EXTT10=
EXTT11=
EXTT12=
EXTT13=
EXTT14=
PLAYORDER=
